<svg width="99" height="20" viewBox="0 0 99 20" fill="none" xmlns="http://www.w3.org/2000/svg">
<path d="M0 7.11728C0 4.9207 1.78068 3.14001 3.97727 3.14001H12.3561C14.5526 3.14001 16.3333 4.9207 16.3333 7.11728C16.3333 9.31386 14.5526 11.0945 12.3561 11.0945H3.97727C1.78069 11.0945 0 9.31386 0 7.11728Z" fill="#5EA500"/>
<path d="M9.33333 14.8067C9.33333 13.518 10.378 12.4733 11.6667 12.4733H12.8333C14.122 12.4733 15.1667 13.518 15.1667 14.8067C15.1667 16.0953 14.122 17.14 12.8333 17.14H11.6667C10.378 17.14 9.33333 16.0953 9.33333 14.8067Z" fill="#5EA500"/>
<path d="M88.6191 15.4964V0H91.3008V10.1535L90.2773 9.84646L95.5178 4.36028H98.8545L94.7399 8.84339L98.9364 15.4964H95.8658L92.222 9.72363L93.8187 9.3961L90.4615 12.999L91.3008 11.3613V15.4964H88.6191Z" fill="#1D293D"/>
<path d="M77.1349 15.4964V6.75537H75.1697V4.36028H77.1349V3.99181C77.1349 3.14568 77.3055 2.4292 77.6466 1.84237C78.0015 1.2419 78.4928 0.784714 79.1205 0.470829C79.7483 0.156943 80.4921 0 81.3519 0C81.5156 0 81.693 0.013647 81.8841 0.0409411C82.0888 0.0545889 82.2594 0.0750599 82.3959 0.102354V2.41555C82.2594 2.38826 82.1298 2.37461 82.0069 2.37461C81.8977 2.36097 81.7954 2.35414 81.6999 2.35414C81.0994 2.35414 80.6354 2.49062 80.3079 2.76356C79.9803 3.02286 79.8166 3.43227 79.8166 3.99181V4.36028H84.6886V6.75537H79.8166V15.4964H77.1349ZM83.6855 15.4964V4.36028H86.3877V15.4964H83.6855Z" fill="#1D293D"/>
<path d="M70.6871 15.4964V4.3603H73.3688V15.4964H70.6871ZM70.6871 3.11158V0.245667H73.3688V3.11158H70.6871Z" fill="#1D293D"/>
<path d="M58.5526 15.4964V4.36027H61.0705V6.55065L60.8658 6.1617C61.1251 5.49299 61.5482 4.98805 62.135 4.64687C62.7355 4.29204 63.4315 4.11462 64.223 4.11462C65.0419 4.11462 65.7652 4.29204 66.3929 4.64687C67.0344 5.00169 67.5325 5.49982 67.8873 6.14123C68.2421 6.76901 68.4195 7.49913 68.4195 8.33161V15.4964H65.7379V8.96621C65.7379 8.47491 65.6423 8.05184 65.4513 7.69702C65.2602 7.34219 64.9941 7.06924 64.6529 6.87818C64.3254 6.67348 63.9364 6.57112 63.4861 6.57112C63.0494 6.57112 62.6604 6.67348 62.3192 6.87818C61.9781 7.06924 61.7119 7.34219 61.5209 7.69702C61.3298 8.05184 61.2343 8.47491 61.2343 8.96621V15.4964H58.5526Z" fill="#1D293D"/>
<path d="M50.6029 20C49.7705 20 48.9994 19.8635 48.2897 19.5906C47.5801 19.3176 46.966 18.9355 46.4474 18.4442C45.9424 17.9665 45.5739 17.4002 45.3419 16.7451L47.8394 15.8035C48.0031 16.322 48.3239 16.7383 48.8015 17.0522C49.2928 17.3797 49.8933 17.5435 50.6029 17.5435C51.1488 17.5435 51.6265 17.4411 52.0359 17.2364C52.459 17.0317 52.7865 16.7315 53.0185 16.3357C53.2505 15.9536 53.3665 15.4896 53.3665 14.9437V12.4053L53.8783 13.0194C53.4962 13.6881 52.9844 14.1931 52.343 14.5343C51.7015 14.8754 50.9714 15.046 50.1526 15.046C49.1154 15.046 48.1874 14.8072 47.3686 14.3296C46.5497 13.8519 45.9083 13.1968 45.4443 12.3644C44.9803 11.5319 44.7483 10.597 44.7483 9.55986C44.7483 8.50902 44.9803 7.57419 45.4443 6.75536C45.9083 5.93653 46.5429 5.29511 47.3481 4.8311C48.1533 4.35345 49.0676 4.11462 50.0912 4.11462C50.9237 4.11462 51.6538 4.29204 52.2815 4.64687C52.923 4.98805 53.4552 5.48617 53.8783 6.14123L53.5098 6.81677V4.36027H56.0482V14.9437C56.0482 15.9126 55.8094 16.7792 55.3317 17.5435C54.8677 18.3077 54.2263 18.9082 53.4074 19.3449C52.6023 19.7816 51.6674 20 50.6029 20ZM50.4801 12.5691C51.0533 12.5691 51.5514 12.4462 51.9745 12.2006C52.4112 11.9413 52.7524 11.5865 52.998 11.1361C53.2437 10.6858 53.3665 10.1672 53.3665 9.58033C53.3665 9.00715 53.2369 8.49538 52.9776 8.04502C52.7319 7.58101 52.3907 7.21936 51.954 6.96007C51.531 6.70077 51.0397 6.57112 50.4801 6.57112C49.9206 6.57112 49.4156 6.70077 48.9653 6.96007C48.5149 7.21936 48.1601 7.58101 47.9008 8.04502C47.6551 8.49538 47.5323 9.00715 47.5323 9.58033C47.5323 10.1535 47.6551 10.6653 47.9008 11.1156C48.1601 11.566 48.5081 11.9208 48.9448 12.1801C49.3952 12.4394 49.9069 12.5691 50.4801 12.5691Z" fill="#1D293D"/>
<path d="M37.2899 15.742C36.1981 15.742 35.2019 15.4896 34.3011 14.9846C33.4141 14.4797 32.7044 13.7905 32.1722 12.9171C31.6536 12.0437 31.3943 11.0474 31.3943 9.92833C31.3943 8.80926 31.6536 7.81302 32.1722 6.9396C32.7044 6.06617 33.4141 5.37699 34.3011 4.87204C35.1882 4.3671 36.1845 4.11462 37.2899 4.11462C38.3817 4.11462 39.3711 4.3671 40.2581 4.87204C41.1452 5.37699 41.848 6.06617 42.3666 6.9396C42.8989 7.79937 43.165 8.79562 43.165 9.92833C43.165 11.0474 42.8989 12.0437 42.3666 12.9171C41.8344 13.7905 41.1247 14.4797 40.2377 14.9846C39.3506 15.4896 38.368 15.742 37.2899 15.742ZM37.2899 13.2855C37.8904 13.2855 38.4158 13.1423 38.8661 12.8557C39.3301 12.5691 39.6918 12.1733 39.9511 11.6684C40.224 11.1498 40.3605 10.5698 40.3605 9.92833C40.3605 9.27327 40.224 8.70009 39.9511 8.20879C39.6918 7.70384 39.3301 7.30807 38.8661 7.02148C38.4158 6.72124 37.8904 6.57112 37.2899 6.57112C36.6758 6.57112 36.1367 6.72124 35.6727 7.02148C35.2087 7.30807 34.8402 7.70384 34.5673 8.20879C34.308 8.70009 34.1783 9.27327 34.1783 9.92833C34.1783 10.5698 34.308 11.1498 34.5673 11.6684C34.8402 12.1733 35.2087 12.5691 35.6727 12.8557C36.1367 13.1423 36.6758 13.2855 37.2899 13.2855Z" fill="#1D293D"/>
<path d="M83.6483 0.143311V3.00922H86.33V0.143311H83.6483Z" fill="#1D293D"/>
<path d="M28.131 4.1145C27.0257 4.11457 26.0296 4.36744 25.1427 4.87231C24.2557 5.37726 23.546 6.06631 23.0138 6.9397C22.4953 7.81301 22.2355 8.80907 22.2355 9.92798C22.2355 11.047 22.4952 12.0438 23.0138 12.9172C23.546 13.7906 24.2557 14.4797 25.1427 14.9846C26.0433 15.4895 27.0394 15.7424 28.131 15.7424C29.2091 15.7424 30.1922 15.4896 31.0792 14.9846C31.1178 14.9627 31.1546 14.9379 31.1925 14.9153C30.8937 14.5798 30.623 14.2151 30.382 13.8196C30.179 13.4778 30.0083 13.1209 29.8683 12.7493C29.8163 12.7862 29.763 12.8218 29.7081 12.8557C29.2578 13.1423 28.7315 13.2854 28.131 13.2854C27.517 13.2853 26.9777 13.1422 26.5138 12.8557C26.05 12.5692 25.6822 12.173 25.4093 11.6682C25.15 11.1496 25.0197 10.5694 25.0197 9.92798C25.0197 9.27313 25.1501 8.70041 25.4093 8.20923C25.6822 7.70444 26.05 7.3083 26.5138 7.02173C26.9777 6.72156 27.517 6.57161 28.131 6.57153C28.7315 6.57153 29.2578 6.72149 29.7081 7.02173C29.7874 7.07074 29.8633 7.12356 29.9366 7.17896C30.063 6.86973 30.2109 6.57049 30.382 6.28247C30.6633 5.82078 30.9848 5.4007 31.3448 5.02075C31.2646 4.96993 31.1833 4.91987 31.0997 4.87231C30.2127 4.36737 29.2228 4.1145 28.131 4.1145Z" fill="#1D293D"/>
</svg>
